<svg xmlns="http://www.w3.org/2000/svg" viewBox="0 0 80 80" id="newspaper">
    <path d="M74 44H60V6a1 1 0 0 0-1-1H6a1 1 0 0 0-1 1v57.375C5 69.785 10.215 75 16.625 75H66.5c4.687 0 8.5-3.813 8.5-8.5V45a1 1 0 0 0-1-1zM16.625 73C11.317 73 7 68.683 7 63.375V7h51v59.5a8.482 8.482 0 0 0 3.034 6.5H16.625zM73 66.5c0 3.584-2.916 6.5-6.5 6.5S60 70.084 60 66.5V46h13v20.5z"></path>
    <path d="M52 23H13a1 1 0 1 0 0 2h39a1 1 0 1 0 0-2zM16.85 15.392l3.463 5.602h1.74v-8.59h-1.612v5.736l-3.515-5.736h-1.688v8.59h1.612zM30.42 19.547h-4.799v-2.338h4.313v-1.448h-4.313v-1.904h4.635v-1.453h-6.369v8.59h6.533zM34.99 20.994l1.705-6.422 1.711 6.422h1.84l2.086-8.59h-1.746l-1.318 6-1.506-6h-2.063l-1.57 5.9-1.295-5.9h-1.775l2.05 8.59zM46.34 19.681c-.528 0-.946-.133-1.257-.398s-.517-.682-.618-1.248l-1.688.164c.114.96.461 1.692 1.043 2.194s1.416.753 2.502.753c.746 0 1.37-.104 1.87-.313s.886-.529 1.16-.958.41-.891.41-1.383c0-.543-.115-1-.343-1.368s-.545-.66-.95-.873-1.028-.42-1.871-.619-1.375-.39-1.594-.574a.66.66 0 0 1-.258-.521c0-.223.092-.4.275-.533.286-.207.68-.311 1.184-.311.488 0 .855.097 1.099.29s.403.51.477.952l1.735-.076c-.028-.79-.314-1.42-.859-1.893s-1.356-.709-2.434-.709c-.66 0-1.224.1-1.69.3s-.825.489-1.073.87-.372.79-.372 1.227c0 .68.264 1.256.79 1.728.376.336 1.028.62 1.958.85.723.18 1.185.305 1.389.375.296.106.504.23.624.372s.178.316.178.519c0 .316-.141.592-.424.829s-.705.354-1.263.354zM52 31H34a1 1 0 1 0 0 2h18a1 1 0 1 0 0-2zm0 8H34a1 1 0 1 0 0 2h18a1 1 0 1 0 0-2zm0 8H34a1 1 0 1 0 0 2h18a1 1 0 1 0 0-2zm0 8H13a1 1 0 1 0 0 2h39a1 1 0 1 0 0-2zm0 8H13a1 1 0 1 0 0 2h39a1 1 0 1 0 0-2zM13 50h15a1 1 0 0 0 1-1V33a1 1 0 0 0-1-1H13a1 1 0 0 0-1 1v16a1 1 0 0 0 1 1zm1-16h13v14H14V34z"></path>
</svg>